<svg width="143" height="168" viewBox="0 0 143 168" fill="none" xmlns="http://www.w3.org/2000/svg">
<circle cx="71.5" cy="96.5" r="71.5" fill="#5B4342"/>
<path d="M53.1023 126.098H37.2841L61.3864 56.2798H80.4091L104.477 126.098H88.6591L71.1705 72.2344H70.625L53.1023 126.098ZM52.1136 98.6548H89.4773V110.178H52.1136V98.6548Z" fill="white"/>
<rect width="62.7329" height="4.95364" transform="matrix(0.715356 0.69876 -0.744576 0.667537 51.6884 1.43399)" fill="#F80303"/>
<rect width="62.7329" height="4.95364" transform="matrix(0.715356 0.69876 -0.744576 0.667537 51.6884 1.43399)" fill="#F80303"/>
<rect width="62.7329" height="4.95364" transform="matrix(0.715356 0.69876 -0.744576 0.667537 51.6884 1.43399)" fill="#F80303"/>
<rect width="62.4201" height="4.97808" transform="matrix(-0.660318 0.750986 -0.792327 -0.610097 95.2045 3.03714)" fill="#F80303"/>
<rect width="62.4201" height="4.97808" transform="matrix(-0.660318 0.750986 -0.792327 -0.610097 95.2045 3.03714)" fill="#F80303"/>
<rect width="62.4201" height="4.97808" transform="matrix(-0.660318 0.750986 -0.792327 -0.610097 95.2045 3.03714)" fill="#F80303"/>
</svg>
